<?xml version="1.0" encoding="UTF-8"?>
<!DOCTYPE svg PUBLIC "-//W3C//DTD SVG 1.1//EN" "http://www.w3.org/Graphics/SVG/1.1/DTD/svg11.dtd">
<svg xmlns="http://www.w3.org/2000/svg" width="100%" height="100%">
    <g alignment-baseline="baseline" transform="translate (100, 100)">
        <svg>
            <line x1="25" y1="400" x2="500" y2="400" stroke="gray" stroke-width="1"/>
            <line x1="25" y1="300" x2="500" y2="300" stroke="gray" stroke-width="1"/>
            <line x1="25" y1="200" x2="500" y2="200" stroke="gray" stroke-width="1"/>
            <line x1="25" y1="100" x2="500" y2="100" stroke="gray" stroke-width="1"/>
            <!--<line x1="25" y1="0" x2="500" y2="0" stroke="gray" stroke-width="3"/>-->
            
            <line x1="25" y1="500" x2="500" y2="500" stroke="black" stroke-width="3"/>
            <line x1="25" y1="500" x2="25" y2="0" stroke="black" stroke-width="3"/>
            
            <rect x="50" y="96" width="30" height="404" fill="blue"/>
            <rect x="150" y="435" width="30" height="65" fill="purple"/>
            <rect x="250" y="400" width="30" height="100" fill="red"/>
            
            <text x="15" y="90" fill="purple" style="font-family:sans-serif; font-size:15px; writing-mode:tb; glyph-orientation-vertical:5">400</text>
            <text x="15" y="190" fill="purple" style="font-family:sans-serif; font-size:15px; writing-mode:tb; glyph-orientation-vertical:5">300</text>
            <text x="15" y="290" fill="purple" style="font-family:sans-serif; font-size:15px; writing-mode:tb; glyph-orientation-vertical:5">200</text>
            <text x="15" y="390" fill="purple" style="font-family:sans-serif; font-size:15px; writing-mode:tb; glyph-orientation-vertical:5">100</text>
            
            <text x="50" y="520" fill="purple" style="font-family:sans-serif; font-size:15px">Tahiti</text>
            <text x="150" y="520" fill="purple" style="font-family:sans-serif; font-size:15px">Raiatea</text>
            <text x="250" y="520" fill="purple" style="font-family:sans-serif; font-size:15px">Tongatapu</text>
            
            <text x="200" y="20" fill="purple" style="font-family:sans-serif; font-size:15px">Island Size (sq. miles)</text>
        </svg>
    </g>
</svg>